<?xml version="1.0" encoding="UTF-8" standalone="no"?>
<svg width="512" height="512" viewBox="0 0 512 512" fill="current" xmlns="http://www.w3.org/2000/svg">
    <path fill-rule="evenodd" clip-rule="evenodd"
          d="M289.282 321.774C289.282 293.647 314.008 303.026 330.763 318.745C347.519 334.465 367.053 358.902 377.421 368.941C387.79 378.98 392.974 384 408.527 384C421.864 384 444.816 384 460.369 384C481.105 384 491.474 378.98 460.369 338.824C432.813 303.25 397.493 272.371 389.79 265.786C388.941 265.06 388.859 263.802 389.581 262.95C409.475 239.494 428.919 208.684 450.753 169.926C471.544 133.02 460.365 128.011 450.753 128.011C439.628 128.008 416.995 128.005 408.523 128.005C387.786 128.004 385.411 138.073 382.602 143.059C351.504 198.262 335.021 220.154 316.429 235.639C308.261 242.443 300.203 246.993 290.54 249.797C289.908 249.98 289.282 249.529 289.282 248.87C289.281 240.061 289.275 187.717 289.282 153.1C289.286 128 284.102 128.009 263.365 128.009C247.813 128.007 226.657 128.004 211.523 128.004C190.786 128.013 187.097 139.487 195.971 148.078C204.844 156.67 206.335 166.856 206.335 178.196C206.335 205.393 206.335 266.045 206.335 277.552C206.335 278.361 205.425 278.817 204.77 278.344C192.932 269.795 182.067 258.951 171.902 246.062C148.481 216.365 130.745 178.202 115.562 139C113.688 134.16 107.839 128 92.2866 128C76.734 128.002 56.6529 128.005 45.6258 128.003C35.2569 128.003 25.3051 134.687 37.8965 167.2C53.8189 208.312 74.9651 255.482 105.978 294.805C137.454 334.715 176.51 370.581 237.448 378.98C254.636 381.35 280.469 379.655 287.48 379.125C288.515 379.046 289.29 378.184 289.29 377.146L289.282 321.774Z"
          fill="current"/>
</svg>
